<svg xmlns="http://www.w3.org/2000/svg" viewBox="0 0 24 24" fill="#0077B5" width="48px" height="48px">
    <rect width="24" height="24" rx="4" fill="#0077B5"/>
    <path d="M4.98 8.5H8.48V20H4.98V8.5ZM6.73 3.5C5.62 3.5 4.73 4.39 4.73 5.5C4.73 6.61 5.62 7.5 6.73 7.5C7.84 7.5 8.73 6.61 8.73 5.5C8.73 4.39 7.84 3.5 6.73 3.5ZM10.98 8.5H14.23V10.03H14.28C14.73 9.23 15.84 8.5 17.23 8.5C20.18 8.5 20.98 10.5 20.98 13.23V20H17.48V13.98C17.48 12.73 17.46 11.03 15.73 11.03C13.98 11.03 13.73 12.48 13.73 13.9V20H10.23V8.5H10.98Z" fill="white"/>
</svg>